# xmcd
#
# Track frame offsets: 
#        150
#        18177
#        42275
#        58887
#        77942
#        99172
#        119047
#        135757
#        173920
#        194810
#        214175
#        235305
#
# Disc length: 3369 seconds
#
# Revision: 0
# Processed by: cddbd v1.5.2PL0 Copyright (c) Steve Scherf et al.
# Submitted via: ExactAudioCopy v1.0b3
#
DISCID=a70d270c
DTITLE=Various Artist - From Matrimony to Alimony: Blues for Good Love Gone B
DTITLE=ad
DYEAR=2002
DGENRE=Blues
TTITLE0=Kenny Neal - No More One More Chance
TTITLE1=Charlie Musselwhite and Sugar Ray Norcia - Life Will Be Better
TTITLE2=Jimmy Thackery - I Still Want to Be Your Man
TTITLE3=Junior Wells - Trying to Get Over You
TTITLE4=Eddie Kirkland - Lonely Street
TTITLE5=Sam Lay - I'm Gonna Shoot Her
TTITLE6=Tab Benoit - Her Mind Is Gone
TTITLE7=Joe Louis Walker - Strangers in Our House
TTITLE8=Luther "Guitar Jr." Johnson - I Pity the Fool
TTITLE9=Charlie Musselwhite - Faithless Lover
TTITLE10=Debbie Davies/Kenny Neal/Tab Benoit - Deal with It
TTITLE11=Mighty Sam McClain - Battlefield of Love
EXTD=
EXTT0=
EXTT1=
EXTT2=
EXTT3=
EXTT4=
EXTT5=
EXTT6=
EXTT7=
EXTT8=
EXTT9=
EXTT10=
EXTT11=
PLAYORDER=
